# xmcd CD database file
#
# Track frame offsets:
#	150
#	35100
#	56836
#	89440
#	110648
#	133481
#	196917
#	241266
#	255443
#
# Disc length: 3866 seconds
#
# Revision: 0
# Processed by: cddbd v1.5.2PL0 Copyright (c) Steve Scherf et al.
# Submitted via: CDex 1.50Beta7
#
DISCID=840f1809
DTITLE=Ludovico Einaudi - Live in Berlin CD1
DYEAR=2008
DGENRE=New Age
TTITLE0=Svanire
TTITLE1=Uno
TTITLE2=Divenire
TTITLE3=Rose
TTITLE4=Ascolta
TTITLE5=Oltremare
TTITLE6=Andare
TTITLE7=L'Origine Nascosta
TTITLE8=Primavera
EXTD=YEAR: 2008
EXTT0=
EXTT1=
EXTT2=
EXTT3=
EXTT4=
EXTT5=
EXTT6=
EXTT7=
EXTT8=
PLAYORDER=
